<svg xmlns="http://www.w3.org/2000/svg" width="150" height="72" fill="none"><path fill="#fff" fill-rule="evenodd" d="M132.692 36.44c0-8.226-3.974-14.717-11.57-14.717-7.628 0-12.244 6.491-12.244 14.654 0 9.672 5.449 14.557 13.269 14.557 3.815 0 6.699-.868 8.879-2.09v-6.426c-2.18 1.093-4.68 1.767-7.853 1.767-3.109 0-5.865-1.092-6.218-4.884h15.673c0-.418.064-2.089.064-2.86Zm-15.833-3.052c0-3.631 2.211-5.141 4.231-5.141 1.955 0 4.038 1.51 4.038 5.141h-8.269ZM96.506 21.723c-3.14 0-5.16 1.478-6.282 2.507l-.416-1.993h-7.052v37.47l8.013-1.704.032-9.094c1.154.836 2.853 2.025 5.673 2.025 5.737 0 10.962-4.628 10.962-14.814-.032-9.32-5.321-14.397-10.93-14.397Zm-1.923 22.141c-1.89 0-3.013-.675-3.782-1.51l-.032-11.922c.834-.932 1.987-1.575 3.814-1.575 2.917 0 4.936 3.278 4.936 7.487 0 4.307-1.987 7.52-4.936 7.52ZM71.73 19.827l8.046-1.735v-6.523l-8.045 1.703v6.555Z" clip-rule="evenodd"/><path fill="#fff" d="M79.776 22.27H71.73v28.117h8.045V22.27Z"/><path fill="#fff" fill-rule="evenodd" d="m63.109 24.647-.513-2.378h-6.923v28.118h8.013V31.331c1.89-2.474 5.096-2.024 6.09-1.67v-7.392c-1.026-.385-4.776-1.092-6.667 2.378Zm-16.026-9.351-7.82 1.671-.032 25.74c0 4.756 3.557 8.259 8.301 8.259 2.628 0 4.551-.482 5.609-1.06v-6.524c-1.026.418-6.09 1.896-6.09-2.86V29.114h6.09V22.27h-6.09l.032-6.973ZM25.417 30.432c0-1.254 1.025-1.736 2.724-1.736 2.436 0 5.513.74 7.949 2.057v-7.552c-2.66-1.06-5.289-1.478-7.949-1.478-6.506 0-10.833 3.406-10.833 9.094 0 8.87 12.18 7.456 12.18 11.28 0 1.478-1.283 1.96-3.078 1.96-2.66 0-6.058-1.093-8.75-2.57v7.647a22.17 22.17 0 0 0 8.75 1.832c6.667 0 11.25-3.31 11.25-9.062-.032-9.576-12.243-7.873-12.243-11.472Z" clip-rule="evenodd"/></svg>