<svg xmlns="http://www.w3.org/2000/svg" width="81" height="48" fill="none"><path fill="#fff" fill-rule="evenodd" d="M6.231 32.714h.511L6.264 34.7c-.073.292-.057.519.04.665.098.146.276.219.544.219a.96.96 0 0 0 .648-.22c.17-.145.284-.372.357-.664l.479-1.987h.519l-.487 2.035c-.105.438-.292.771-.567.99-.268.22-.625.333-1.063.333-.438 0-.738-.106-.9-.325-.162-.219-.195-.551-.09-.99l.487-2.043Zm61.557 3.268.779-3.268h1.776l-.106.454H68.98l-.194.819h1.257l-.114.462h-1.257l-.251 1.054h1.257l-.114.479h-1.776Zm-.048-2.474a1.038 1.038 0 0 0-.398-.283 1.199 1.199 0 0 0-.495-.098c-.348 0-.657.114-.932.341a1.62 1.62 0 0 0-.544.892c-.081.35-.048.641.114.876.154.227.397.34.722.34.186 0 .373-.032.559-.105.187-.064.373-.17.568-.308l-.146.6a1.8 1.8 0 0 1-.511.228 2.067 2.067 0 0 1-.552.072c-.243 0-.462-.04-.648-.122a1.16 1.16 0 0 1-.69-.916 1.649 1.649 0 0 1 .04-.68 2.236 2.236 0 0 1 .78-1.226 2.07 2.07 0 0 1 1.322-.486c.186 0 .356.024.519.08.154.058.3.139.43.252l-.138.543Zm-5.045 1.185h.884l-.146-.747a1.009 1.009 0 0 1-.017-.162c-.008-.065-.008-.13-.008-.203a1.576 1.576 0 0 1-.105.203 1.627 1.627 0 0 1-.098.17l-.51.739Zm1.127 1.29-.162-.844h-1.265l-.568.843h-.543l2.351-3.398.73 3.398h-.543Zm-4.282 0 .779-3.27h1.776l-.106.455h-1.257l-.194.81h1.256l-.113.463h-1.257l-.365 1.533h-.52v.008ZM58.007 34.1h.097c.276 0 .463-.033.568-.098.105-.065.179-.178.219-.349.04-.178.024-.308-.057-.381-.08-.073-.251-.114-.51-.114h-.098l-.22.941h.001Zm-.13.413-.349 1.46h-.486l.779-3.268h.721c.211 0 .373.016.479.04a.53.53 0 0 1 .267.138c.081.081.13.179.154.308.025.122.016.26-.016.414-.065.26-.17.47-.333.616a1.103 1.103 0 0 1-.608.268l.738 1.484h-.584l-.706-1.46h-.056Zm-3.203 1.468.779-3.268h1.784l-.106.454h-1.257l-.194.819h1.257l-.113.462h-1.258l-.25 1.054h1.256l-.114.479h-1.784Zm-.56-2.822-.673 2.814h-.519l.673-2.814h-.843l.105-.454h2.206l-.105.454h-.843Zm-5.28 2.822.812-3.398 1.54 1.995c.041.057.082.114.122.179.04.064.081.138.13.218l.543-2.262h.479l-.811 3.39-1.574-2.036-.121-.17a.891.891 0 0 1-.098-.195l-.543 2.27h-.478v.009Zm-1.265 0 .779-3.268h.519l-.779 3.268h-.519Zm-3.82-.657.462-.194c.008.146.049.26.138.332a.57.57 0 0 0 .373.114c.154 0 .284-.04.398-.13a.59.59 0 0 0 .219-.349c.049-.194-.065-.365-.34-.51-.041-.025-.065-.041-.09-.05-.308-.178-.503-.332-.584-.477-.081-.147-.098-.317-.049-.52a1.13 1.13 0 0 1 .422-.648c.22-.163.462-.252.755-.252.235 0 .42.049.559.138a.54.54 0 0 1 .235.398l-.454.21a.491.491 0 0 0-.154-.227.395.395 0 0 0-.244-.073.576.576 0 0 0-.356.114.515.515 0 0 0-.195.3c-.048.195.09.381.405.552.025.016.041.024.057.032.276.146.463.292.544.438.08.146.097.316.049.535a1.29 1.29 0 0 1-.463.738 1.345 1.345 0 0 1-.835.276c-.268 0-.479-.065-.625-.195-.162-.13-.235-.316-.227-.551Zm-.543-2.165-.673 2.814h-.52l.674-2.814h-.843l.105-.454h2.206l-.106.454h-.843Zm-5.28 2.822.811-3.398 1.541 1.995c.04.057.081.114.122.179.04.064.08.138.13.218l.543-2.262h.478l-.81 3.39-1.574-2.036-.122-.17a.869.869 0 0 1-.097-.195l-.543 2.27h-.479v.009Zm-2.368 0 .779-3.268h1.776l-.106.454H36.75l-.194.819h1.257l-.114.462h-1.257l-.252 1.054h1.258l-.114.479h-1.776Zm-.86-1.614c0-.024.008-.097.025-.21a5.37 5.37 0 0 1 .024-.236 1.806 1.806 0 0 1-.251.454l-1.25 1.744-.405-1.776c-.016-.073-.032-.146-.04-.21a1.727 1.727 0 0 1-.017-.203c-.016.065-.04.137-.065.218a1.798 1.798 0 0 1-.097.236l-.73 1.606h-.478l1.565-3.407.446 2.06c.008.033.016.09.025.162.008.074.024.17.04.284.057-.097.13-.21.227-.357.025-.04.049-.064.057-.089l1.411-2.06-.049 3.407h-.478l.04-1.623Zm-4.939 1.614.357-1.492-.649-1.768h.544l.405 1.111c.008.032.016.065.032.113.017.05.025.098.04.146l.098-.146c.033-.048.065-.089.098-.13l.949-1.094h.519l-1.517 1.76-.357 1.492h-.519v.008Zm-2.408-1.29h.883l-.146-.746a.975.975 0 0 1-.016-.162c-.008-.065-.008-.13-.008-.203a1.615 1.615 0 0 1-.106.203 1.574 1.574 0 0 1-.097.17l-.511.739Zm1.119 1.29-.163-.843h-1.265l-.568.843h-.543l2.352-3.398.73 3.398h-.543Zm-3.252-1.906h.13c.283 0 .486-.032.6-.097.113-.065.186-.178.226-.34.04-.171.017-.3-.064-.365-.09-.073-.268-.106-.536-.106h-.13l-.226.909Zm-.139.438-.348 1.468h-.487l.779-3.268h.786c.235 0 .398.016.503.04a.497.497 0 0 1 .252.13.542.542 0 0 1 .162.308c.024.13.016.268-.016.422-.04.154-.098.3-.187.43s-.195.235-.308.308a1.09 1.09 0 0 1-.316.13 2.71 2.71 0 0 1-.52.04h-.3v-.008Zm-4.841.982h.438c.235 0 .421-.017.551-.049.13-.032.243-.09.349-.162a1.32 1.32 0 0 0 .365-.397 1.81 1.81 0 0 0 .219-.552c.048-.21.064-.39.04-.543a.744.744 0 0 0-.178-.398.55.55 0 0 0-.284-.162 2.452 2.452 0 0 0-.576-.048h-.373l-.551 2.31Zm-.633.486.779-3.268h.697c.454 0 .77.024.94.073a.949.949 0 0 1 .43.235c.147.146.244.333.285.551.04.227.024.487-.04.77a2.538 2.538 0 0 1-.325.77 1.88 1.88 0 0 1-.552.553 1.58 1.58 0 0 1-.535.235c-.186.048-.47.073-.844.073h-.835v.008Zm-2.376 0 .778-3.268h1.776l-.105.454h-1.257l-.195.819h1.257l-.113.462h-1.257l-.252 1.054h1.257l-.113.479h-1.776Zm-1.257 0 .778-3.268h.519l-.779 3.268h-.519Zm-2.352 0 .778-3.268h1.776l-.105.454h-1.257l-.195.81h1.257l-.113.463h-1.258l-.365 1.533h-.519v.008Zm-1.258 0 .779-3.268h.519l-.779 3.268h-.52.001Zm-3.584 0 .81-3.398 1.542 1.995c.04.057.08.114.121.179.04.064.081.138.13.218l.543-2.262h.479l-.811 3.39-1.574-2.036-.121-.17a.87.87 0 0 1-.098-.195l-.543 2.27h-.478v.009Zm49.569-6.114h-3.56L59.734 12h3.56l-4.947 17.867Zm-29.586-1.12a1.64 1.64 0 0 1-1.573 1.201H8.835c-.503 0-.876-.17-1.12-.51-.243-.342-.3-.764-.154-1.266l4.477-16.123h3.56L11.6 26.452h14.242L29.84 12.05h3.56l-4.638 16.699ZM56.498 12.56c-.243-.341-.624-.511-1.143-.511H35.793l-.965 3.503h17.794l-1.038 3.74H37.35v-.009h-3.56l-2.952 10.665h3.56l1.98-7.153h16c.504 0 .974-.17 1.412-.511.438-.34.73-.762.868-1.265l1.979-7.153c.154-.535.105-.965-.138-1.306Z" clip-rule="evenodd"/><path fill="#0E8635" fill-rule="evenodd" d="m69.443 12.033 4.501 8.953-9.464 8.954 1.125-4.062 5.176-4.892-2.462-4.898 1.124-4.056Z" clip-rule="evenodd"/><path fill="#E97208" fill-rule="evenodd" d="m66.28 12.033 4.501 8.953-9.473 8.954 4.972-17.907Z" clip-rule="evenodd"/></svg>