<svg xmlns="http://www.w3.org/2000/svg" width="190" height="48" fill="none"><rect width="190" height="48" fill="#1B1B1B" rx="12"/><mask id="a" width="14" height="30" x="16" y="9" maskUnits="userSpaceOnUse" style="mask-type:luminance"><path fill="#fff" d="m26.123 9.054-10.03 1.231 3.518 28.66 10.031-1.232-3.519-28.66Z"/></mask><g mask="url(#a)"><path fill="#F7D963" d="M22.5 13.899c-3.98 8.161-1.285 18.558 6.901 23.334.161.126.255.296.197.413-.059.116-.274.142-.435.017a17.91 17.91 0 0 1-7.95-10.552c-1.235-4.43-.795-9.139 1.287-13.213Zm3.007 21.23c-.93 1.024-3.1.527-4.393-1.424 1.179-.763 2.981-.002 4.393 1.425Zm.534-4.829c.852 1.314 1.068 3.07.143 4.128-1.411-1.426-1.29-3.405-.143-4.128Zm-2.851 1.95c-1.095.862-3.098-.056-3.98-2.202 1.286-.485 2.873.593 3.98 2.203Zm1.514-4.55c.579 1.457.431 3.22-.707 4.015l-.036.004c-1.075-1.65-.543-3.533.743-4.018Zm-3.177 1.373c-1.273.592-3.03-.683-3.49-2.954 1.352-.238 2.724 1.157 3.49 2.954Zm2.364-4.145c.296 1.527-.227 3.191-1.5 3.784l-.004-.036c-.73-1.801.115-3.505 1.504-3.748Zm-6.248-2.906c1.392.084 2.463 1.698 2.84 3.579-1.34.346-2.845-1.25-2.84-3.579Zm5.967.031c-.026 1.567-.826 3.047-2.165 3.393l-.04-.031c-.34-1.886.818-3.41 2.205-3.362Zm.266-2.869c-.285 1.526-1.398 2.826-2.777 2.85-.018-1.925 1.426-3.193 2.777-2.85Zm-5.862-1.244c1.316.348 2.077 2.109 2.127 3.994l-.023.112-.035.004c-1.348-.016-2.472-1.77-2.091-3.998l.022-.112Zm6.679-1.583c-.621 1.458-1.909 2.525-3.282 2.294.348-1.898 2.007-2.902 3.282-2.294Zm-5.493-2.38c1.24.61 1.624 2.564 1.28 4.497-1.374-.231-2.211-2.31-1.28-4.498Zm6.877-.263c-.925 1.35-2.426 2.152-3.724 1.657.757-1.838 2.638-2.506 3.724-1.657Zm-4.935-3.467c1.127.88 1.087 2.921.326 4.724-1.261-.5-1.677-2.704-.326-4.724Zm4.945-1.19c-.438 1.764-1.636 3.256-3.205 4.104-.211-1.72 1.419-3.847 3.205-4.103Z"/></g><mask id="b" width="15" height="30" x="55" y="9" maskUnits="userSpaceOnUse" style="mask-type:luminance"><path fill="#fff" d="m59.9 9 10.007 1.406L65.89 39l-10.01-1.407L59.9 9Z"/></mask><g mask="url(#b)"><path fill="#F7D963" d="M63.439 13.908c3.836 8.23.96 18.578-7.308 23.211-.163.123-.26.292-.203.409.056.117.27.147.434.024a17.91 17.91 0 0 0 8.133-10.41c1.312-4.409.954-9.124-1.056-13.234Zm-3.377 21.176c.91 1.039 3.09.58 4.417-1.348-1.166-.783-2.981-.054-4.417 1.348Zm-.45-4.838c-.875 1.298-1.121 3.05-.215 4.125 1.436-1.402 1.35-3.383.215-4.125Zm2.817 2c1.079.88 3.098-.003 4.017-2.133-1.277-.508-2.883.542-4.017 2.133Zm-1.435-4.576c-.604 1.446-.488 3.212.637 4.026l.036.005c1.104-1.63.605-3.523-.673-4.03Zm3.153 1.427c1.262.615 3.04-.63 3.54-2.892-1.347-.262-2.743 1.109-3.54 2.892Zm-2.291-4.185c-.324 1.522.17 3.195 1.432 3.81l.006-.036c.761-1.788-.054-3.507-1.438-3.774Zm6.297-2.796c-1.393.059-2.492 1.654-2.901 3.528 1.333.37 2.866-1.2 2.901-3.528Zm-5.967-.074c-.001 1.567.773 3.061 2.106 3.43l.04-.03c.374-1.88-.758-3.423-2.146-3.4Zm-.216-2.873c.259 1.53 1.35 2.85 2.728 2.898.051-1.924-1.37-3.217-2.728-2.898Zm5.883-1.141c-1.321.324-2.114 2.072-2.196 3.956l.02.112.036.005c1.348.007 2.503-1.726 2.16-3.961l-.02-.112Zm-6.65-1.7c.596 1.469 1.864 2.558 3.242 2.35-.316-1.903-1.957-2.935-3.242-2.35Zm5.533-2.284c-1.249.59-1.668 2.535-1.358 4.474 1.378-.207 2.251-2.271 1.358-4.474Zm-6.871-.383c.901 1.366 2.389 2.195 3.694 1.722-.723-1.851-2.593-2.551-3.694-1.722Zm4.995-3.38c-1.142.86-1.137 2.902-.408 4.717 1.27-.477 1.724-2.673.408-4.717Zm-4.924-1.275c.407 1.77 1.58 3.284 3.133 4.158.241-1.716-1.35-3.871-3.133-4.158Z"/></g><g filter="url(#c)"><path fill="#fff" d="M37.817 9.047h9.924V37.32l-4.962-3.403-4.962 3.404V9.047Z"/><mask id="d" width="11" height="30" x="37" y="9" maskUnits="userSpaceOnUse" style="mask-type:alpha"><path fill="#fff" d="M37.799 9.027h9.956v29.11l-4.978-3.505-4.978 3.505V9.027Z"/></mask><g mask="url(#d)"><path fill="#E52E40" d="M41.117 9.027H37.8v29.11h3.319V9.027Z"/><path fill="#F6F8FA" d="M44.437 9.027h-3.32v29.11h3.32V9.027Z"/><path fill="#0E6A8E" d="M47.755 9.027h-3.318v29.11h3.319V9.027Z"/></g><g filter="url(#e)"><path fill="#96561C" d="M42.777 32.613c5.851 0 10.594-4.736 10.594-10.578s-4.743-10.578-10.594-10.578c-5.85 0-10.594 4.736-10.594 10.578s4.743 10.578 10.594 10.578Z"/></g><g filter="url(#f)"><path fill="url(#g)" d="M42.782 32.28c5.666 0 10.259-4.586 10.259-10.243 0-5.658-4.593-10.244-10.26-10.244-5.665 0-10.259 4.586-10.259 10.244 0 5.657 4.594 10.244 10.26 10.244Z"/></g><g filter="url(#h)"><path stroke="#fff" stroke-width=".087" d="M48.538 22.032c-.024 3.256-2.7 5.876-5.976 5.852-3.278-.024-5.914-2.684-5.89-5.939.025-3.255 2.7-5.875 5.977-5.851 3.277.024 5.913 2.683 5.89 5.938Z"/></g><g filter="url(#i)"><path stroke="#96561C" stroke-width=".116" d="M42.527 27.954c3.315.025 6.023-2.626 6.048-5.922.024-3.296-2.644-5.986-5.96-6.01-3.314-.025-6.022 2.626-6.047 5.922-.024 3.296 2.644 5.986 5.96 6.01Z"/></g><g filter="url(#j)"><path stroke="#96561C" stroke-width=".116" d="M42.527 27.954c3.315.025 6.023-2.626 6.048-5.922.024-3.296-2.644-5.986-5.96-6.01-3.314-.025-6.022 2.626-6.047 5.922-.024 3.296 2.644 5.986 5.96 6.01Z"/></g><g fill="#96561C" filter="url(#k)"><path d="M39.492 24.613v-1.495h-.878v-.768h.878v-.956h-.878v-.767h.878V19.13h.816v1.496h.942V19.13h.815v1.496h.879v.767h-.879v.956h.879v.768h-.879v1.495h-.815v-1.495h-.942v1.495h-.816Zm.816-2.263h.942v-.956h-.942v.956Zm4.98 2.263V19.79h-.134l-.823 1.793h-.965l1.169-2.451h1.663v5.482h-.91Z"/></g><g filter="url(#l)"><path fill="#96561C" d="m36.557 26.237-.383.413a.443.443 0 0 0-.064.515l.271.493-.416-.38a.45.45 0 0 0-.518-.064l-.496.27.383-.414a.443.443 0 0 0 .064-.515l-.271-.492.415.38a.45.45 0 0 0 .519.063l.496-.269Z"/></g><g filter="url(#m)"><path fill="#96561C" d="m49.09 25.885.497.27a.45.45 0 0 0 .518-.064l.416-.38-.271.493a.443.443 0 0 0 .063.515l.383.413-.496-.27a.45.45 0 0 0-.518.064l-.416.38.271-.492a.443.443 0 0 0-.063-.516l-.383-.413Z"/></g><g fill="#96561C" filter="url(#n)"><path d="M39.543 29.582a.498.498 0 0 1-.209.226.563.563 0 0 1-.308.064.968.968 0 0 1-.37-.104 1.078 1.078 0 0 1-.225-.142.736.736 0 0 1-.15-.168l.068-.098a.567.567 0 0 0 .16.174.785.785 0 0 0 .11.066.473.473 0 0 0 .217.05.363.363 0 0 0 .198-.065.476.476 0 0 0 .152-.187.569.569 0 0 0 .065-.278.437.437 0 0 0-.082-.242.542.542 0 0 0-.216-.177l-.093-.045-.652 1.33a.079.079 0 0 0-.008.05.08.08 0 0 0 .033.046l.096.064c.02.013.03.027.034.041a.066.066 0 0 1-.007.048.056.056 0 0 1-.037.031c-.017.005-.038 0-.064-.011l-.617-.3c-.025-.012-.04-.026-.047-.042a.055.055 0 0 1 .002-.049c.014-.03.041-.041.08-.036l.074.018a.105.105 0 0 0 .056-.005.066.066 0 0 0 .036-.035l.614-1.249a.066.066 0 0 0 .005-.05.104.104 0 0 0-.03-.047l-.06-.046c-.029-.027-.036-.056-.02-.086a.054.054 0 0 1 .037-.031c.016-.005.037-.001.061.01l.575.28c.172.083.307.18.403.291a.7.7 0 0 1 .174.348.58.58 0 0 1-.055.357Zm1.345.77a.146.146 0 0 1-.068.096c-.032.018-.072.021-.123.008l-.796-.203.026-.1.523.134c.043.012.07-.002.08-.041a.444.444 0 0 0 .004-.268.197.197 0 0 0-.142-.129.228.228 0 0 0-.153.013.324.324 0 0 0-.132.112.617.617 0 0 0-.09.205c-.043.164-.036.297.02.399a.417.417 0 0 0 .276.2c.075.02.145.021.21.007a.333.333 0 0 0 .165-.092.21.21 0 0 1 .045-.025.053.053 0 0 1 .03-.002.031.031 0 0 1 .025.027.082.082 0 0 1-.002.047.354.354 0 0 1-.128.178.524.524 0 0 1-.23.095.712.712 0 0 1-.293-.018.717.717 0 0 1-.309-.159.585.585 0 0 1-.168-.61.757.757 0 0 1 .165-.32.588.588 0 0 1 .282-.176.695.695 0 0 1 .367.004.65.65 0 0 1 .276.136c.07.062.117.134.14.217a.494.494 0 0 1 0 .265Zm1.543.16a.145.145 0 0 1-.049.107c-.028.023-.068.033-.12.029l-.82-.063.009-.101.538.04c.045.004.069-.014.072-.054a.444.444 0 0 0-.043-.265.198.198 0 0 0-.163-.102.229.229 0 0 0-.148.04.323.323 0 0 0-.11.132.613.613 0 0 0-.053.218c-.013.17.017.299.09.39a.418.418 0 0 0 .307.149.437.437 0 0 0 .207-.03.333.333 0 0 0 .146-.12.214.214 0 0 1 .041-.032.054.054 0 0 1 .03-.007.031.031 0 0 1 .029.022.083.083 0 0 1 .005.047.355.355 0 0 1-.094.197.522.522 0 0 1-.21.134.711.711 0 0 1-.292.033.718.718 0 0 1-.331-.103.585.585 0 0 1-.274-.57.758.758 0 0 1 .106-.346.587.587 0 0 1 .247-.221.697.697 0 0 1 .363-.06.655.655 0 0 1 .296.086c.08.048.138.111.175.19a.493.493 0 0 1 .046.26Zm.812.046a.824.824 0 0 1 .026-.323.45.45 0 0 1 .127-.205.312.312 0 0 1 .183-.081c.084-.007.15.011.2.055.05.043.078.109.086.198.007.077-.004.137-.033.179a.158.158 0 0 1-.121.068c-.053.004-.094-.006-.125-.032a.16.16 0 0 1-.05-.113l-.005-.048c-.002-.027-.01-.046-.024-.058-.014-.013-.034-.018-.061-.016a.137.137 0 0 0-.088.046.257.257 0 0 0-.058.119.621.621 0 0 0-.01.199l-.047.012Zm-.016-.487.048.291.057.672c.002.024.009.042.02.053.01.01.03.017.057.02l.113.008a.084.084 0 0 1 .047.016.05.05 0 0 1 .02.037.05.05 0 0 1-.017.044.09.09 0 0 1-.053.019l-.613.052c-.026.002-.045-.001-.057-.01a.053.053 0 0 1-.02-.039.052.052 0 0 1 .009-.035.075.075 0 0 1 .035-.025l.05-.019a.065.065 0 0 0 .033-.029.12.12 0 0 0 .006-.06l-.063-.742c-.002-.022-.007-.038-.015-.047-.008-.009-.02-.014-.036-.015l-.069-.001a.064.064 0 0 1-.036-.014.043.043 0 0 1-.014-.03.048.048 0 0 1 .01-.035.143.143 0 0 1 .047-.032l.229-.106a1.06 1.06 0 0 1 .093-.04.22.22 0 0 1 .048-.013c.019-.001.034.004.045.016a.13.13 0 0 1 .026.064Zm1.19-.871.35 1.613a.131.131 0 0 0 .023.056c.01.01.024.017.04.018l.052.003a.083.083 0 0 1 .041.015c.01.007.017.017.02.03a.05.05 0 0 1-.009.044c-.01.012-.026.02-.051.026l-.507.108c-.025.006-.044.005-.057-.002a.053.053 0 0 1-.026-.036.052.052 0 0 1 .005-.036.076.076 0 0 1 .03-.03l.048-.024a.064.064 0 0 0 .03-.033.118.118 0 0 0-.002-.062l-.303-1.394c-.005-.022-.011-.037-.02-.045a.047.047 0 0 0-.037-.013l-.07.01a.072.072 0 0 1-.037-.01.046.046 0 0 1-.017-.028.046.046 0 0 1 .005-.036.126.126 0 0 1 .042-.037l.22-.138a.792.792 0 0 1 .073-.044.223.223 0 0 1 .052-.019c.029-.006.052-.003.07.009.018.012.03.03.035.055Zm.943.435.299.922a.134.134 0 0 0 .028.054c.012.01.025.014.042.014l.052-.002c.018 0 .032.004.042.011a.046.046 0 0 1 .023.028.05.05 0 0 1-.005.045c-.008.012-.024.022-.048.03l-.494.158c-.025.008-.044.009-.057.003a.053.053 0 0 1-.03-.034.051.051 0 0 1 .002-.036.075.075 0 0 1 .028-.032l.044-.03a.065.065 0 0 0 .026-.035.119.119 0 0 0-.007-.06l-.23-.711c-.007-.022-.015-.036-.025-.043-.01-.008-.022-.01-.038-.009l-.067.016a.065.065 0 0 1-.04-.005.046.046 0 0 1-.019-.027.046.046 0 0 1 .002-.036.126.126 0 0 1 .038-.041l.205-.159a.834.834 0 0 1 .07-.051.232.232 0 0 1 .048-.024c.029-.009.052-.008.071.002a.08.08 0 0 1 .04.052Zm-.293-.206a.258.258 0 0 1-.178 0 .181.181 0 0 1-.104-.116.172.172 0 0 1 .017-.153.256.256 0 0 1 .145-.103.26.26 0 0 1 .18 0c.051.02.086.058.104.113a.178.178 0 0 1-.017.156.258.258 0 0 1-.147.103Zm1.081-.079a.205.205 0 0 0-.11.102.145.145 0 0 0 .003.124.165.165 0 0 0 .05.062.177.177 0 0 0 .094.028.663.663 0 0 0 .165-.02 1.16 1.16 0 0 1 .33-.036.379.379 0 0 1 .203.067.386.386 0 0 1 .117.148.36.36 0 0 1 .005.318c-.048.1-.147.186-.297.255a.546.546 0 0 1-.231.058.171.171 0 0 0-.063.013.066.066 0 0 0-.035.032 1.045 1.045 0 0 0-.018.04.057.057 0 0 1-.031.032.048.048 0 0 1-.04.002.132.132 0 0 1-.04-.033l-.19-.2a.147.147 0 0 1-.04-.065.056.056 0 0 1 .014-.053c.016-.015.032-.023.048-.022.018 0 .037.006.057.02a.725.725 0 0 0 .183.095.443.443 0 0 0 .316-.02c.069-.031.113-.068.134-.111a.148.148 0 0 0 0-.135.15.15 0 0 0-.057-.064.216.216 0 0 0-.109-.025.892.892 0 0 0-.194.025.972.972 0 0 1-.288.028.368.368 0 0 1-.19-.066.416.416 0 0 1-.121-.156.338.338 0 0 1-.031-.206.381.381 0 0 1 .093-.19.577.577 0 0 1 .201-.146.53.53 0 0 1 .232-.054.154.154 0 0 0 .066-.013.074.074 0 0 0 .038-.035l.019-.044a.06.06 0 0 1 .031-.032.043.043 0 0 1 .036-.001.093.093 0 0 1 .04.035l.164.199c.02.026.032.049.037.067.005.018 0 .035-.015.051-.015.015-.031.022-.05.02a.168.168 0 0 1-.063-.027.507.507 0 0 0-.25-.101.421.421 0 0 0-.213.035Zm.75-.329-.06.018a.118.118 0 0 1-.052.005.053.053 0 0 1-.028-.022c-.01-.015-.012-.029-.007-.042a.076.076 0 0 1 .033-.038l.067-.044a.108.108 0 0 0 .038-.038.137.137 0 0 0 .014-.06l.01-.244a.214.214 0 0 1 .017-.07.1.1 0 0 1 .036-.042.055.055 0 0 1 .047-.008c.015.004.028.015.04.033l.609.942a.237.237 0 0 0 .106.098c.038.015.075.01.112-.014a.122.122 0 0 0 .052-.056.16.16 0 0 0 .013-.061c0-.02 0-.037.002-.053a.048.048 0 0 1 .022-.037.04.04 0 0 1 .034-.006c.011.003.023.013.034.03.026.043.038.09.034.144a.34.34 0 0 1-.056.16.46.46 0 0 1-.143.138.39.39 0 0 1-.268.072c-.085-.013-.159-.068-.221-.164l-.392-.606a.08.08 0 0 0-.04-.035.1.1 0 0 0-.053 0Zm.24-.15-.072-.11.368-.235a.08.08 0 0 1 .048-.015.04.04 0 0 1 .034.02c.013.02.014.043.003.068-.01.026-.038.052-.081.08l-.3.192Z"/></g><g filter="url(#o)"><path fill="#96561C" d="m35.827 24.071-1.63.39-.155-.642a.578.578 0 0 1-.005-.28.478.478 0 0 1 .122-.223.501.501 0 0 1 .245-.128l.03-.008a.483.483 0 0 1 .491.15c.058.07.1.15.123.248l.096.393.626-.15.06.25h-.003Zm-.915-.045-.089-.37a.31.31 0 0 0-.122-.192.255.255 0 0 0-.211-.034l-.024.005a.256.256 0 0 0-.175.124.317.317 0 0 0-.02.229l.09.366.546-.13.005.002Z"/></g><g filter="url(#p)"><path fill="#96561C" d="m35.511 22.58-1.678.028-.012-.7a.67.67 0 0 1 .05-.274.431.431 0 0 1 .152-.186.417.417 0 0 1 .24-.07h.026a.4.4 0 0 1 .254.072c.065.05.11.11.136.181h.039c0-.062.021-.11.057-.147.036-.038.091-.058.16-.058l.557-.009.005.26-.52.01a.146.146 0 0 0-.103.035c-.027.021-.039.06-.036.107l.01.507.66-.012.005.258-.002-.003Zm-.901-.244-.007-.414a.293.293 0 0 0-.075-.212.255.255 0 0 0-.194-.074h-.019a.25.25 0 0 0-.192.079.302.302 0 0 0-.067.216l.008.415.546-.01Z"/></g><g filter="url(#q)"><path fill="#96561C" d="M35.696 20.374c-.044.2-.135.348-.274.44-.139.093-.314.117-.53.072l-.383-.08c-.213-.046-.364-.141-.453-.282-.088-.143-.11-.314-.067-.514a.685.685 0 0 1 .273-.443c.14-.096.317-.12.53-.074l.383.08c.214.046.365.141.453.284.09.143.11.315.068.515v.002Zm-.228-.05c.029-.129.012-.236-.05-.322a.45.45 0 0 0-.288-.171l-.403-.086a.454.454 0 0 0-.333.038.395.395 0 0 0-.177.274.397.397 0 0 0 .05.32.44.44 0 0 0 .288.173l.402.086a.443.443 0 0 0 .334-.04.393.393 0 0 0 .177-.272Z"/></g><g filter="url(#r)"><path fill="#96561C" d="M36.172 18.93a.566.566 0 0 1-.297.302c-.127.05-.268.038-.422-.034l-.129-.06.11-.233.13.06a.305.305 0 0 0 .225.024c.07-.022.122-.074.163-.157.038-.081.043-.153.012-.212a.335.335 0 0 0-.168-.15l-.85-.396-.125.265-.213-.1.311-.665.213.098-.079.169.851.395c.158.074.259.17.304.29a.495.495 0 0 1-.038.403h.002Z"/></g><g filter="url(#s)"><path fill="#96561C" d="m36.647 17.966-1.34-1.003.636-.838.187.14-.48.634.384.288.44-.58.188.14-.441.578.393.293.486-.643.187.14-.642.849.002.002Z"/></g><g filter="url(#t)"><path fill="#96561C" d="M38.037 16.468c-.156.134-.316.196-.482.186-.165-.01-.321-.097-.465-.262l-.256-.295c-.144-.164-.206-.329-.192-.495.014-.165.1-.315.256-.446.154-.13.307-.188.463-.176a.636.636 0 0 1 .424.238l.01.012-.194.167-.015-.017a.415.415 0 0 0-.251-.15c-.094-.014-.19.02-.285.102a.391.391 0 0 0-.151.281.44.44 0 0 0 .129.313l.264.302c.088.102.184.16.292.171a.393.393 0 0 0 .304-.107c.096-.08.144-.169.142-.264a.414.414 0 0 0-.11-.27l-.027-.03.194-.167.022.026c.127.146.184.296.175.45-.01.155-.091.298-.245.43l-.002.002Z"/></g><g filter="url(#u)"><path fill="#96561C" d="m39.142 15.654-.69-1.26-.453.245-.113-.205 1.131-.612.113.205-.453.245.69 1.26-.227.124.002-.002Z"/></g><g filter="url(#v)"><path fill="#96561C" d="M41.414 14.87c-.204.037-.374.01-.515-.082-.142-.09-.23-.246-.269-.458l-.07-.383c-.038-.214-.009-.388.09-.524.098-.136.249-.222.453-.257.203-.036.373-.01.515.083.141.09.23.245.27.457l.07.384c.038.214.01.388-.091.524a.685.685 0 0 1-.453.257Zm-.04-.228c.129-.024.222-.078.28-.169a.438.438 0 0 0 .05-.329l-.074-.402a.444.444 0 0 0-.163-.29.404.404 0 0 0-.324-.06.396.396 0 0 0-.278.17.442.442 0 0 0-.053.33l.075.403c.024.13.079.228.165.29a.402.402 0 0 0 .321.06v-.003Z"/></g><g filter="url(#w)"><path fill="#96561C" d="m42.48 14.712.063-1.665 1.035.038-.01.233-.776-.028-.02.48.715.027-.01.233-.714-.026-.026.72-.26-.01.003-.002Z"/></g><g filter="url(#x)"><path fill="#96561C" d="m44.918 15.075.47-1.355-.487-.167.077-.221 1.22.417-.077.221-.487-.166-.47 1.355-.244-.084h-.002Z"/></g><g filter="url(#y)"><path fill="#96561C" d="m45.953 15.472.882-1.417.22.135-.378.608.599.369.379-.607.22.135-.882 1.417-.22-.135.38-.613-.598-.369-.382.612-.22-.135Z"/></g><g filter="url(#z)"><path fill="#96561C" d="m47.338 16.395 1.168-1.196.76.731-.164.167-.572-.553-.336.343.525.505-.163.167-.525-.507-.343.35.583.56-.163.166-.767-.74-.003.007Z"/></g><g filter="url(#A)"><path fill="#96561C" d="m48.858 18.129 1.407-.944.112.232-1.267.826.016.036 1.467-.415.197.405-1.244.879.017.033 1.44-.466.113.23-1.62.5-.197-.404 1.26-.89-.016-.034-1.489.421-.196-.407v-.002Z"/></g><g filter="url(#B)"><path fill="#96561C" d="m49.653 20.011 1.647-.322.204 1.032-.23.045-.154-.779-.472.093.141.712-.23.045-.141-.712-.482.096.156.79-.23.046-.206-1.044-.003-.002Z"/></g><g filter="url(#C)"><path fill="#96561C" d="m49.886 21.428 1.677.014-.01 1.05h-.234l.007-.795-.482-.005-.004.727h-.235l.005-.729-.492-.005-.007.805h-.235l.01-1.064v.002Z"/></g><g filter="url(#D)"><path fill="#96561C" d="m49.833 22.858 1.64.357-.056.25-.68-.147-.007.038.546.755-.072.329-.645-.913-.999.58.074-.339.834-.471.01-.039-.695-.152.055-.253-.005.005Z"/></g></g><g clip-path="url(#E)"><path fill="#00AA45" d="M85.302 10c-4.196 0-5.395 1.222-5.395 5.5 0 4.278 1.202 5.5 5.395 5.5s5.394-1.222 5.394-5.5c0-4.278-1.201-5.5-5.394-5.5Z"/><path fill="#219653" fill-rule="evenodd" d="M81.304 11.424c-.705.719-1.011 1.945-1.011 4.076 0 2.13.306 3.357 1.012 4.076.705.72 1.909 1.031 3.997 1.031s3.291-.312 3.997-1.03c.705-.72 1.012-1.947 1.012-4.077s-.307-3.357-1.012-4.076c-.706-.72-1.909-1.031-3.997-1.031-2.09 0-3.293.312-3.998 1.03ZM79.907 15.5c0-4.278 1.2-5.5 5.395-5.5 4.193 0 5.394 1.222 5.394 5.5 0 4.278-1.201 5.5-5.394 5.5s-5.395-1.222-5.395-5.5Z" clip-rule="evenodd"/><path fill="#24292E" fill-rule="evenodd" d="M85.124 12.553h-2.327v6.678h1.808v-1.397h.52c1.474 0 2.681-1.175 2.681-2.64 0-1.466-1.207-2.641-2.682-2.641Zm-.519 3.492v-1.703h.52c.489 0 .874.388.874.852a.863.863 0 0 1-.875.85h-.519Z" clip-rule="evenodd"/><path fill="#fff" fill-rule="evenodd" d="M83.375 12.357h2.134c1.375 0 2.49 1.095 2.49 2.445 0 1.35-1.115 2.444-2.49 2.444h-.711v1.397h-1.423v-6.286Zm1.423 3.493h.711c.59 0 1.067-.47 1.067-1.048 0-.579-.477-1.048-1.067-1.048h-.711v2.096Z" clip-rule="evenodd"/><path fill="#24292E" fill-rule="evenodd" d="M83.183 12.16h2.326c1.475 0 2.683 1.176 2.683 2.641 0 1.466-1.208 2.64-2.683 2.64h-.518v1.398h-1.808V12.16Zm.385.393v5.893h1.037v-1.397h.904c1.276 0 2.297-1.013 2.297-2.248 0-1.235-1.021-2.248-2.297-2.248h-1.941Zm1.037 1.004h.904c.69 0 1.26.55 1.26 1.244s-.57 1.244-1.26 1.244h-.904v-2.488Zm.386.393v1.702h.518c.49 0 .875-.388.875-.851a.863.863 0 0 0-.875-.851h-.518Z" clip-rule="evenodd"/><path fill="#fff" d="M98.04 14.839c0 .36-.091.672-.273.935-.18.264-.435.467-.767.611-.329.144-.718.217-1.166.217-.299 0-.572-.032-.82-.096a2.276 2.276 0 0 1-.648-.27l.057-.37c.098.07.204.127.318.174a1.98 1.98 0 0 0 .763.138c.25 0 .473-.053.668-.158.196-.106.35-.26.461-.466.112-.205.167-.455.167-.748 0-.341-.066-.636-.2-.886a1.416 1.416 0 0 0-.554-.582 1.654 1.654 0 0 0-.844-.208h-.322v4.715a.26.26 0 0 0 .049.158c.032.041.084.067.155.078l.355.05a.264.264 0 0 1 .146.071c.03.033.045.082.045.146a.18.18 0 0 1-.061.141c-.038.033-.1.05-.184.05h-2.128c-.084 0-.147-.017-.188-.05a.18.18 0 0 1-.06-.141c0-.106.056-.176.17-.212l.237-.055a.297.297 0 0 0 .147-.087.214.214 0 0 0 .053-.15v-4.431a.214.214 0 0 0-.053-.15.297.297 0 0 0-.147-.087l-.236-.054c-.115-.036-.172-.107-.172-.212 0-.061.02-.108.062-.141.04-.034.103-.05.187-.05h1.978c.592 0 1.098.091 1.516.274.42.18.739.431.959.753.22.318.33.683.33 1.093Zm3.937 1.242c0 .147-.04.261-.122.341-.082.078-.201.117-.359.117h-2.544v-.316h1.668c.138 0 .207-.064.207-.191 0-.366-.065-.643-.195-.832a.608.608 0 0 0-.526-.287.694.694 0 0 0-.449.158c-.13.106-.232.257-.305.453-.074.194-.11.43-.11.707 0 .535.122.937.366 1.206.248.268.577.403.987.403a1.3 1.3 0 0 0 .628-.146c.182-.097.323-.235.424-.415a.805.805 0 0 1 .114-.113.168.168 0 0 1 .09-.029c.043 0 .075.021.094.063a.32.32 0 0 1 .028.141 1.14 1.14 0 0 1-.244.649 1.626 1.626 0 0 1-.616.474 2.1 2.1 0 0 1-.889.178 2.18 2.18 0 0 1-1.048-.245 1.838 1.838 0 0 1-.718-.694 2.073 2.073 0 0 1-.256-1.048c0-.418.081-.79.244-1.114a1.84 1.84 0 0 1 .71-.76c.307-.184.674-.275 1.101-.275.364 0 .674.068.929.204.259.133.454.318.587.557a1.6 1.6 0 0 1 .204.814Zm4.185 0c0 .147-.04.261-.122.341-.081.078-.201.117-.359.117h-2.544v-.316h1.668c.138 0 .208-.064.208-.191 0-.366-.066-.643-.196-.832a.608.608 0 0 0-.526-.287.696.696 0 0 0-.449.158c-.13.106-.232.257-.305.453-.074.194-.111.43-.111.707 0 .535.123.937.367 1.206.248.268.577.403.987.403a1.3 1.3 0 0 0 .628-.146c.182-.097.324-.235.424-.415a.805.805 0 0 1 .114-.113.168.168 0 0 1 .09-.029c.044 0 .075.021.094.063a.32.32 0 0 1 .028.141c-.01.233-.092.45-.244.649a1.626 1.626 0 0 1-.616.474 2.1 2.1 0 0 1-.889.178c-.394 0-.743-.081-1.048-.245a1.84 1.84 0 0 1-.717-.694 2.066 2.066 0 0 1-.257-1.048c0-.418.081-.79.244-1.114a1.84 1.84 0 0 1 .71-.76c.307-.184.674-.275 1.101-.275.364 0 .674.068.93.204.258.133.453.318.587.557a1.6 1.6 0 0 1 .203.814Zm1.902.254c0-.402.056-.739.167-1.01.112-.272.259-.475.441-.611a.951.951 0 0 1 .587-.208c.258 0 .458.075.599.224.142.15.212.365.212.645 0 .25-.05.435-.151.557a.483.483 0 0 1-.391.183c-.163 0-.287-.045-.371-.133a.517.517 0 0 1-.126-.37v-.15c-.003-.089-.024-.154-.062-.195-.038-.045-.1-.067-.187-.067a.412.412 0 0 0-.277.12.899.899 0 0 0-.217.367 2.039 2.039 0 0 0-.081.627l-.143.021Zm.078-1.542.065.943v2.133c0 .08.015.14.045.179.032.036.09.06.171.075l.351.054a.252.252 0 0 1 .138.062.16.16 0 0 1 .049.125.15.15 0 0 1-.061.129.263.263 0 0 1-.167.045h-1.904c-.076 0-.132-.015-.167-.045a.154.154 0 0 1-.053-.125c0-.042.012-.076.036-.104a.266.266 0 0 1 .114-.075l.159-.041a.186.186 0 0 0 .107-.084.394.394 0 0 0 .036-.19v-2.375c0-.072-.011-.123-.032-.153-.019-.03-.052-.05-.098-.059l-.216-.016a.19.19 0 0 1-.106-.054.14.14 0 0 1-.033-.096c0-.047.014-.084.041-.112a.432.432 0 0 1 .147-.083l.742-.275a2.21 2.21 0 0 1 .293-.1.623.623 0 0 1 .147-.024c.06 0 .105.02.135.062.029.039.05.107.061.204Zm3.808-2.17v5.251c0 .086.011.15.033.191a.2.2 0 0 0 .11.083l.155.042a.24.24 0 0 1 .114.07.155.155 0 0 1 .037.109.157.157 0 0 1-.053.125c-.036.03-.093.045-.172.045h-1.606c-.076 0-.132-.015-.167-.046a.157.157 0 0 1-.053-.124c0-.042.012-.076.036-.104a.264.264 0 0 1 .115-.075l.159-.042a.201.201 0 0 0 .106-.087.369.369 0 0 0 .036-.187v-4.552c0-.07-.01-.12-.032-.15-.019-.03-.052-.05-.098-.058l-.216-.017a.216.216 0 0 1-.106-.058.14.14 0 0 1-.033-.095c0-.045.014-.08.041-.109a.43.43 0 0 1 .147-.083l.758-.282a2.86 2.86 0 0 1 .257-.088.648.648 0 0 1 .163-.025c.09 0 .156.025.2.075a.262.262 0 0 1 .069.191Zm2.441 2.167v3.084c0 .086.011.15.033.191a.2.2 0 0 0 .11.083l.155.042a.23.23 0 0 1 .114.07.155.155 0 0 1 .037.108.157.157 0 0 1-.053.125c-.036.03-.093.046-.171.046h-1.607c-.076 0-.132-.015-.167-.046a.157.157 0 0 1-.053-.124c0-.042.012-.077.037-.104a.254.254 0 0 1 .114-.075l.159-.042a.201.201 0 0 0 .106-.087.37.37 0 0 0 .036-.187v-2.382c0-.072-.01-.124-.032-.154-.019-.03-.052-.05-.098-.058l-.216-.017a.194.194 0 0 1-.106-.054.14.14 0 0 1-.033-.096c0-.047.012-.084.037-.112a.427.427 0 0 1 .151-.083l.758-.283a3.72 3.72 0 0 1 .253-.083.687.687 0 0 1 .163-.025c.092 0 .16.025.204.075.046.047.069.11.069.187Zm-.664-.899c-.218 0-.393-.057-.526-.17a.578.578 0 0 1-.196-.453c0-.186.065-.334.196-.445.133-.114.308-.17.526-.17.22 0 .395.056.526.17.133.11.199.259.199.445a.574.574 0 0 1-.199.453c-.131.113-.306.17-.526.17Zm3.081.989c-.187 0-.334.048-.44.145a.469.469 0 0 0-.155.362c0 .092.019.175.057.25a.565.565 0 0 0 .228.2c.112.06.275.117.49.17.418.088.742.2.97.332.228.133.388.287.477.462.09.172.135.364.135.578 0 .385-.133.692-.4.922-.266.228-.654.341-1.162.341a1.58 1.58 0 0 1-.44-.05 2.354 2.354 0 0 1-.282-.091.48.48 0 0 0-.195-.05.21.21 0 0 0-.143.05c-.035.03-.069.06-.102.091a.175.175 0 0 1-.131.05c-.048 0-.085-.014-.11-.041a.437.437 0 0 1-.069-.154l-.269-.836a.522.522 0 0 1-.029-.237.177.177 0 0 1 .11-.128c.063-.023.117-.021.164.004a.34.34 0 0 1 .13.128c.122.217.253.39.392.52.138.128.284.22.436.279.155.058.312.087.473.087.234 0 .408-.049.522-.145a.477.477 0 0 0 .175-.387.48.48 0 0 0-.073-.262.624.624 0 0 0-.273-.216 2.743 2.743 0 0 0-.58-.187c-.35-.078-.63-.178-.84-.3a1.175 1.175 0 0 1-.448-.449 1.307 1.307 0 0 1-.135-.607 1.1 1.1 0 0 1 .184-.632c.122-.18.292-.32.51-.42.217-.102.469-.153.754-.153.185 0 .333.017.444.05.112.033.203.068.274.104a.49.49 0 0 0 .199.05.226.226 0 0 0 .155-.05l.11-.104a.185.185 0 0 1 .131-.05.13.13 0 0 1 .102.046c.03.027.051.077.065.15l.2.793a.691.691 0 0 1 .012.241c-.008.059-.043.1-.106.125-.06.025-.113.022-.159-.008a.506.506 0 0 1-.139-.162c-.168-.294-.36-.502-.574-.624a1.262 1.262 0 0 0-.645-.187Zm2.416.13-.187-.059a.359.359 0 0 1-.139-.074.153.153 0 0 1-.041-.104c0-.056.018-.097.053-.125a.237.237 0 0 1 .151-.046h.249c.065 0 .12-.012.163-.037a.454.454 0 0 0 .135-.133l.444-.636a.72.72 0 0 1 .163-.158.287.287 0 0 1 .155-.05c.057 0 .102.018.135.054a.231.231 0 0 1 .049.158v3.554c0 .194.036.343.11.445.076.103.18.154.314.154.1 0 .178-.02.232-.058a.513.513 0 0 0 .135-.142c.032-.052.064-.098.093-.137a.164.164 0 0 1 .123-.066c.041 0 .072.014.094.041.024.028.036.074.036.137a.74.74 0 0 1-.155.441 1.072 1.072 0 0 1-.412.333 1.395 1.395 0 0 1-.603.124c-.348 0-.621-.088-.82-.266-.195-.18-.293-.45-.293-.81v-2.295c0-.072-.015-.125-.045-.158a.278.278 0 0 0-.139-.087Zm.877.004v-.412h1.35a.23.23 0 0 1 .146.042.124.124 0 0 1 .058.112c0 .072-.036.133-.107.183-.07.05-.184.075-.342.075h-1.105Z"/></g><path fill="#fff" d="M80.451 38c-.16 0-.24-.059-.24-.176 0-.096.07-.16.208-.192l.368-.064c.224-.043.368-.101.432-.176.075-.075.112-.224.112-.448v-9.408c0-.224-.037-.373-.112-.448-.064-.075-.208-.133-.432-.176l-.368-.064c-.138-.032-.208-.096-.208-.192 0-.117.08-.176.24-.176h3.344c.63 0 1.184.139 1.664.416.48.267.854.64 1.12 1.12.267.48.4 1.035.4 1.664 0 .608-.133 1.147-.4 1.616a2.89 2.89 0 0 1-1.104 1.104c-.469.256-1.013.384-1.632.384h-1.152c-.149 0-.224.075-.224.224v3.872c0 .224.043.379.128.464.086.075.278.139.576.192l.592.096c.118.021.176.08.176.176 0 .128-.08.192-.24.192h-3.248Zm2.016-6.496c0 .587.358.88 1.072.88.694 0 1.238-.245 1.632-.736.406-.49.608-1.163.608-2.016 0-.875-.202-1.552-.608-2.032-.405-.48-.98-.72-1.728-.72-.65 0-.976.213-.976.64v3.984Zm6.877-.64c.438-.747.966-1.12 1.585-1.12.352 0 .613.107.784.32.17.203.256.432.256.688a.749.749 0 0 1-.16.496c-.096.128-.251.192-.465.192-.17 0-.298-.037-.383-.112a1.359 1.359 0 0 1-.192-.288.962.962 0 0 0-.16-.272c-.064-.085-.171-.128-.32-.128-.192 0-.374.117-.544.352-.171.224-.315.528-.433.912-.106.384-.16.821-.16 1.312v3.712c0 .224.032.384.097.48.074.096.224.155.448.176l.431.048c.118.021.177.08.177.176 0 .128-.08.192-.24.192H87.36c-.16 0-.24-.059-.24-.176 0-.096.069-.16.208-.192l.192-.032c.224-.043.367-.107.431-.192.075-.096.112-.256.112-.48v-5.376c0-.192-.031-.32-.095-.384-.054-.075-.155-.123-.304-.144l-.337-.048c-.138-.01-.207-.07-.207-.176 0-.085.085-.144.255-.176.331-.053.582-.139.752-.256.182-.117.368-.261.56-.432.096-.096.177-.144.24-.144.097 0 .145.064.145.192v.864c0 .075.032.123.096.144.064.01.122-.032.175-.128Zm5.398 7.28a2.247 2.247 0 0 1-1.472-.544c-.426-.373-.768-.88-1.024-1.52s-.384-1.355-.384-2.144c0-.79.128-1.499.384-2.128.256-.63.603-1.13 1.04-1.504.438-.373.923-.56 1.456-.56.544 0 1.03.187 1.456.56.438.373.784.875 1.04 1.504.256.63.384 1.339.384 2.128 0 .79-.128 1.504-.384 2.144-.245.64-.586 1.147-1.024 1.52a2.247 2.247 0 0 1-1.472.544Zm0-.4c1.11 0 1.664-1.27 1.664-3.808 0-2.528-.554-3.792-1.664-3.792-1.109 0-1.664 1.264-1.664 3.792 0 2.539.555 3.808 1.664 3.808Zm4.627-9.424a.753.753 0 0 1-.576-.24.893.893 0 0 1-.224-.608c0-.245.075-.443.224-.592.15-.16.342-.24.576-.24.235 0 .422.08.56.24a.8.8 0 0 1 .225.592.856.856 0 0 1-.224.608.734.734 0 0 1-.56.24Zm-1.76 13.12c-.309 0-.565-.08-.767-.24a.758.758 0 0 1-.305-.624.73.73 0 0 1 .176-.48.551.551 0 0 1 .449-.192c.17 0 .293.043.367.128.075.096.134.203.177.32.042.117.096.219.16.304a.382.382 0 0 0 .32.144c.202 0 .357-.117.463-.352.107-.235.16-.565.16-.992v-7.904c0-.192-.031-.32-.096-.384-.053-.075-.154-.123-.303-.144l-.337-.048c-.138-.01-.207-.07-.207-.176 0-.085.085-.144.255-.176.331-.053.598-.139.8-.256.203-.117.4-.261.592-.432.096-.096.176-.144.24-.144.097 0 .144.064.144.192v7.312c0 1.28-.208 2.288-.624 3.024-.415.747-.97 1.12-1.663 1.12Zm5.966-3.296c-.512 0-.971-.17-1.376-.512-.405-.341-.731-.821-.976-1.44-.235-.63-.352-1.355-.352-2.176 0-.843.123-1.584.368-2.224.245-.64.581-1.141 1.008-1.504.427-.363.901-.544 1.424-.544.629 0 1.136.261 1.52.784.395.512.592 1.35.592 2.512 0 .352-.133.528-.4.528h-3.04c-.213 0-.32.123-.32.368 0 1.13.165 1.979.496 2.544.331.565.752.848 1.264.848.405 0 .736-.144.992-.432.256-.288.464-.773.624-1.456.032-.117.101-.176.208-.176.128 0 .176.107.144.32-.171.95-.443 1.616-.816 2-.373.373-.827.56-1.36.56Zm-1.28-4.976h1.616c.512 0 .768-.267.768-.8 0-.693-.085-1.237-.256-1.632-.171-.395-.427-.592-.768-.592-.416 0-.768.24-1.056.72-.277.48-.459 1.163-.544 2.048-.021.17.059.256.24.256Zm6.296 4.976a1.99 1.99 0 0 1-1.28-.464c-.374-.32-.672-.773-.896-1.36-.224-.587-.336-1.285-.336-2.096 0-.907.133-1.696.4-2.368.277-.672.65-1.19 1.12-1.552.469-.373.992-.56 1.568-.56.49 0 .874.096 1.152.288.106.075.16.192.16.352l.032 1.952c0 .16-.064.24-.192.24-.118 0-.192-.07-.224-.208-.15-.587-.294-1.04-.432-1.36-.139-.32-.283-.539-.432-.656a.746.746 0 0 0-.496-.192c-.214 0-.438.123-.672.368-.224.245-.416.645-.576 1.2-.15.544-.224 1.264-.224 2.16 0 1.141.144 2 .432 2.576.298.576.682.864 1.152.864.373 0 .682-.155.928-.464.256-.31.474-.87.656-1.68.032-.117.096-.176.192-.176.128 0 .176.107.144.32-.118.747-.283 1.328-.496 1.744-.203.405-.448.688-.736.848-.278.15-.592.224-.944.224Zm4.413 0c-.373 0-.682-.128-.928-.384-.234-.267-.352-.699-.352-1.296V30.48c0-.128-.064-.192-.192-.192h-.464c-.17 0-.256-.064-.256-.192 0-.085.048-.16.144-.224.352-.245.635-.507.848-.784.214-.288.4-.677.56-1.168.075-.224.166-.336.272-.336.118 0 .176.085.176.256v1.776c0 .15.075.224.224.224h1.04c.171 0 .256.075.256.224 0 .15-.085.224-.256.224h-1.04c-.149 0-.224.075-.224.224v5.968c0 .235.038.421.112.56.075.128.214.192.416.192.224 0 .406-.112.544-.336.15-.224.246-.587.288-1.088.022-.15.091-.224.208-.224.128 0 .192.08.192.24-.032.821-.202 1.413-.512 1.776-.298.363-.65.544-1.056.544Zm6.796 0a2.246 2.246 0 0 1-1.472-.544c-.427-.373-.768-.88-1.024-1.52s-.384-1.355-.384-2.144c0-.79.128-1.499.384-2.128.256-.63.602-1.13 1.04-1.504.437-.373.922-.56 1.456-.56a2.15 2.15 0 0 1 1.456.56c.437.373.784.875 1.04 1.504.256.63.384 1.339.384 2.128 0 .79-.128 1.504-.384 2.144-.246.64-.587 1.147-1.024 1.52a2.248 2.248 0 0 1-1.472.544Zm0-.4c1.109 0 1.664-1.27 1.664-3.808 0-2.528-.555-3.792-1.664-3.792-1.11 0-1.664 1.264-1.664 3.792 0 2.539.554 3.808 1.664 3.808Zm4.163-.816v-6.256c0-.256-.128-.384-.384-.384h-.368c-.128 0-.192-.053-.192-.16 0-.107.064-.165.192-.176.501-.053.752-.272.752-.656V29.2c0-.555.08-1.072.24-1.552.171-.48.411-.87.72-1.168.32-.299.709-.448 1.168-.448.427 0 .784.123 1.072.368.288.245.432.539.432.88 0 .203-.053.357-.16.464a.54.54 0 0 1-.4.144c-.213 0-.368-.07-.464-.208a2.045 2.045 0 0 1-.208-.464 1.976 1.976 0 0 0-.208-.48c-.075-.139-.213-.208-.416-.208-.213 0-.384.123-.512.368-.117.235-.176.683-.176 1.344v1.408c0 .128.064.192.192.192h1.376c.16 0 .24.075.24.224 0 .15-.08.224-.24.224h-1.376c-.128 0-.192.064-.192.192v6.448c0 .224.032.379.096.464.075.085.224.139.448.16l.848.08c.117.021.176.08.176.176 0 .128-.08.192-.24.192h-3.328c-.16 0-.24-.059-.24-.176 0-.117.069-.181.208-.192l.4-.032c.224-.021.368-.08.432-.176.075-.107.112-.272.112-.496Zm7.36 1.216c-.373 0-.683-.128-.928-.384-.235-.267-.352-.699-.352-1.296V30.48c0-.128-.064-.192-.192-.192h-.464c-.171 0-.256-.064-.256-.192 0-.085.048-.16.144-.224.352-.245.635-.507.848-.784.213-.288.4-.677.56-1.168.075-.224.165-.336.272-.336.117 0 .176.085.176.256v1.776c0 .15.075.224.224.224h1.04c.171 0 .256.075.256.224 0 .15-.085.224-.256.224h-1.04c-.149 0-.224.075-.224.224v5.968c0 .235.037.421.112.56.075.128.213.192.416.192.224 0 .405-.112.544-.336.149-.224.245-.587.288-1.088.021-.15.091-.224.208-.224.128 0 .192.08.192.24-.032.821-.203 1.413-.512 1.776-.299.363-.651.544-1.056.544Zm1.741-.144c-.128 0-.192-.059-.192-.176 0-.107.058-.17.176-.192l.224-.032c.224-.032.368-.096.432-.192.074-.096.112-.256.112-.48V27.76c0-.192-.032-.32-.096-.384-.054-.075-.155-.123-.304-.144l-.336-.048c-.118-.021-.176-.085-.176-.192s.058-.17.176-.192a3.861 3.861 0 0 0 1.264-.48c.17-.107.298-.16.384-.16.117 0 .176.085.176.256v4.24c0 .096.032.155.096.176.064.01.144-.027.24-.112.405-.373.762-.63 1.072-.768a2.35 2.35 0 0 1 .976-.208c.501 0 .896.17 1.184.512.288.33.432.821.432 1.472v5.2c0 .224.032.384.096.48.074.085.224.144.448.176l.352.048c.117.021.176.085.176.192 0 .117-.064.176-.192.176h-2.688c-.15 0-.224-.059-.224-.176 0-.107.058-.17.176-.192l.224-.032c.224-.032.368-.096.432-.192.074-.096.112-.256.112-.48v-5.024c0-.523-.096-.89-.288-1.104-.192-.213-.464-.32-.816-.32-.342 0-.651.101-.928.304a2.03 2.03 0 0 0-.64.784c-.16.32-.24.677-.24 1.072v4.288c0 .224.032.384.096.48.074.096.224.155.448.176l.432.048c.117.021.176.085.176.192 0 .117-.064.176-.192.176h-2.8Zm9.675.144c-.512 0-.97-.17-1.376-.512-.405-.341-.73-.821-.976-1.44-.234-.63-.352-1.355-.352-2.176 0-.843.123-1.584.368-2.224.246-.64.582-1.141 1.008-1.504.427-.363.902-.544 1.424-.544.63 0 1.136.261 1.52.784.395.512.592 1.35.592 2.512 0 .352-.133.528-.4.528h-3.04c-.213 0-.32.123-.32.368 0 1.13.166 1.979.496 2.544.331.565.752.848 1.264.848.406 0 .736-.144.992-.432.256-.288.464-.773.624-1.456.032-.117.102-.176.208-.176.128 0 .176.107.144.32-.17.95-.442 1.616-.816 2a1.85 1.85 0 0 1-1.36.56Zm-1.28-4.976h1.616c.512 0 .768-.267.768-.8 0-.693-.085-1.237-.256-1.632-.17-.395-.426-.592-.768-.592-.416 0-.768.24-1.056.72-.277.48-.458 1.163-.544 2.048-.021.17.059.256.24.256Zm8.647 4.976c-.139 0-.235-.107-.288-.32l-1.936-6.912c-.075-.256-.15-.421-.224-.496-.064-.075-.171-.128-.32-.16l-.24-.048c-.139-.032-.208-.101-.208-.208 0-.107.074-.16.224-.16h2.592c.149 0 .224.053.224.16 0 .117-.07.187-.208.208l-.256.032c-.256.032-.416.096-.48.192-.064.085-.064.245 0 .48l1.264 4.656c.032.107.08.16.144.16.074 0 .128-.053.16-.16l1.088-4.144c.021-.085.032-.17.032-.256a.624.624 0 0 0-.032-.272c-.075-.256-.15-.416-.224-.48-.064-.075-.171-.128-.32-.16l-.24-.048c-.139-.032-.208-.101-.208-.208 0-.107.074-.16.224-.16h2.592c.149 0 .224.053.224.16 0 .117-.07.187-.208.208l-.256.032c-.256.032-.411.096-.464.192-.054.085-.059.245-.016.48l1.024 4.624c.021.107.064.16.128.16.074 0 .128-.053.16-.16l1.216-4.336c.085-.288.106-.501.064-.64-.032-.15-.182-.245-.448-.288l-.336-.064c-.139-.032-.208-.101-.208-.208 0-.107.074-.16.224-.16h2c.149 0 .224.059.224.176 0 .107-.064.181-.192.224l-.144.048a.919.919 0 0 0-.416.288c-.118.139-.224.379-.32.72l-1.824 6.528c-.054.213-.155.32-.304.32-.128 0-.219-.107-.272-.32l-1.248-5.12c-.032-.117-.086-.176-.16-.176-.064-.01-.112.048-.144.176l-1.376 5.12c-.054.213-.15.32-.288.32Zm8.959 0c-.512 0-.971-.17-1.376-.512-.405-.341-.731-.821-.976-1.44-.235-.63-.352-1.355-.352-2.176 0-.843.123-1.584.368-2.224.245-.64.581-1.141 1.008-1.504.427-.363.901-.544 1.424-.544.629 0 1.136.261 1.52.784.395.512.592 1.35.592 2.512 0 .352-.133.528-.4.528h-3.04c-.213 0-.32.123-.32.368 0 1.13.165 1.979.496 2.544.331.565.752.848 1.264.848.405 0 .736-.144.992-.432.256-.288.464-.773.624-1.456.032-.117.101-.176.208-.176.128 0 .176.107.144.32-.171.95-.443 1.616-.816 2-.373.373-.827.56-1.36.56Zm-1.28-4.976h1.616c.512 0 .768-.267.768-.8 0-.693-.085-1.237-.256-1.632-.171-.395-.427-.592-.768-.592-.416 0-.768.24-1.056.72-.277.48-.459 1.163-.544 2.048-.021.17.059.256.24.256Zm6.488 4.976c-.512 0-.971-.17-1.376-.512-.406-.341-.731-.821-.976-1.44-.235-.63-.352-1.355-.352-2.176 0-.843.122-1.584.368-2.224.245-.64.581-1.141 1.008-1.504.426-.363.901-.544 1.424-.544.629 0 1.136.261 1.52.784.394.512.592 1.35.592 2.512 0 .352-.134.528-.4.528h-3.04c-.214 0-.32.123-.32.368 0 1.13.165 1.979.496 2.544.33.565.752.848 1.264.848.405 0 .736-.144.992-.432.256-.288.464-.773.624-1.456.032-.117.101-.176.208-.176.128 0 .176.107.144.32-.171.95-.443 1.616-.816 2-.374.373-.827.56-1.36.56Zm-1.28-4.976h1.616c.512 0 .768-.267.768-.8 0-.693-.086-1.237-.256-1.632-.171-.395-.427-.592-.768-.592-.416 0-.768.24-1.056.72-.278.48-.459 1.163-.544 2.048-.022.17.058.256.24.256ZM166.84 38c-.128 0-.192-.059-.192-.176 0-.107.059-.17.176-.192l.224-.032c.224-.032.368-.096.432-.192.075-.096.112-.256.112-.48V27.76c0-.192-.032-.32-.096-.384-.053-.075-.155-.123-.304-.144l-.336-.048c-.117-.021-.176-.085-.176-.192s.059-.17.176-.192c.299-.064.549-.139.752-.224a3.8 3.8 0 0 0 .512-.256c.171-.107.299-.16.384-.16.117 0 .176.085.176.256v6.704c0 .107.043.176.128.208.096.021.187-.016.272-.112l1.872-2.016c.224-.245.315-.448.272-.608-.032-.17-.155-.277-.368-.32l-.368-.064c-.139-.032-.208-.101-.208-.208 0-.107.075-.16.224-.16h2.752c.149 0 .224.059.224.176 0 .117-.069.181-.208.192l-.144.016a1.519 1.519 0 0 0-.736.288c-.245.16-.539.416-.88.768l-.992 1.056c-.224.245-.277.485-.16.72l2.016 3.872c.117.213.245.368.384.464a1.4 1.4 0 0 0 .512.208l.16.032c.128.032.192.096.192.192 0 .117-.075.176-.224.176h-2.784c-.149 0-.224-.059-.224-.176 0-.107.069-.17.208-.192l.272-.032c.405-.053.491-.315.256-.784l-1.52-2.96a.29.29 0 0 0-.24-.176c-.096-.01-.187.027-.272.112l-.176.176a.756.756 0 0 0-.192.288 1.008 1.008 0 0 0-.048.32v2.352c0 .224.032.384.096.48.075.096.224.155.448.176l.432.048c.117.021.176.085.176.192 0 .117-.064.176-.192.176h-2.8Z"/><defs><filter id="c" width="27.688" height="34.131" x="28.918" y="6.517" color-interpolation-filters="sRGB" filterUnits="userSpaceOnUse"><feFlood flood-opacity="0" result="BackgroundImageFix"/><feColorMatrix in="SourceAlpha" result="hardAlpha" values="0 0 0 0 0 0 0 0 0 0 0 0 0 0 0 0 0 0 127 0"/><feOffset/><feGaussianBlur stdDeviation="1.255"/><feComposite in2="hardAlpha" operator="out"/><feColorMatrix values="0 0 0 0 0.976471 0 0 0 0 0.866667 0 0 0 0 0.4 0 0 0 0.25 0"/><feBlend in2="BackgroundImageFix" result="effect1_dropShadow_1996_3599"/><feBlend in="SourceGraphic" in2="effect1_dropShadow_1996_3599" result="shape"/></filter><filter id="e" width="21.188" height="21.189" x="32.183" y="11.457" color-interpolation-filters="sRGB" filterUnits="userSpaceOnUse"><feFlood flood-opacity="0" result="BackgroundImageFix"/><feBlend in="SourceGraphic" in2="BackgroundImageFix" result="shape"/><feColorMatrix in="SourceAlpha" result="hardAlpha" values="0 0 0 0 0 0 0 0 0 0 0 0 0 0 0 0 0 0 127 0"/><feOffset dy=".033"/><feGaussianBlur stdDeviation=".021"/><feComposite in2="hardAlpha" k2="-1" k3="1" operator="arithmetic"/><feColorMatrix values="0 0 0 0 0 0 0 0 0 0 0 0 0 0 0 0 0 0 0.25 0"/><feBlend in2="shape" result="effect1_innerShadow_1996_3599"/></filter><filter id="f" width="20.519" height="20.488" x="32.522" y="11.793" color-interpolation-filters="sRGB" filterUnits="userSpaceOnUse"><feFlood flood-opacity="0" result="BackgroundImageFix"/><feBlend in="SourceGraphic" in2="BackgroundImageFix" result="shape"/><feColorMatrix in="SourceAlpha" result="hardAlpha" values="0 0 0 0 0 0 0 0 0 0 0 0 0 0 0 0 0 0 127 0"/><feOffset/><feGaussianBlur stdDeviation=".165"/><feComposite in2="hardAlpha" k2="-1" k3="1" operator="arithmetic"/><feColorMatrix values="0 0 0 0 1 0 0 0 0 1 0 0 0 0 1 0 0 0 0.55 0"/><feBlend in2="shape" result="effect1_innerShadow_1996_3599"/><feColorMatrix in="SourceAlpha" result="hardAlpha" values="0 0 0 0 0 0 0 0 0 0 0 0 0 0 0 0 0 0 127 0"/><feOffset/><feGaussianBlur stdDeviation=".165"/><feComposite in2="hardAlpha" k2="-1" k3="1" operator="arithmetic"/><feColorMatrix values="0 0 0 0 1 0 0 0 0 1 0 0 0 0 1 0 0 0 0.35 0"/><feBlend in2="effect1_innerShadow_1996_3599" result="effect2_innerShadow_1996_3599"/></filter><filter id="h" width="12.755" height="12.679" x="36.228" y="15.65" color-interpolation-filters="sRGB" filterUnits="userSpaceOnUse"><feFlood flood-opacity="0" result="BackgroundImageFix"/><feBlend in="SourceGraphic" in2="BackgroundImageFix" result="shape"/><feGaussianBlur result="effect1_foregroundBlur_1996_3599" stdDeviation=".201"/></filter><filter id="i" width="12.123" height="12.082" x="36.51" y="15.963" color-interpolation-filters="sRGB" filterUnits="userSpaceOnUse"><feFlood flood-opacity="0" result="BackgroundImageFix"/><feBlend in="SourceGraphic" in2="BackgroundImageFix" result="shape"/><feColorMatrix in="SourceAlpha" result="hardAlpha" values="0 0 0 0 0 0 0 0 0 0 0 0 0 0 0 0 0 0 127 0"/><feOffset dy=".033"/><feGaussianBlur stdDeviation=".021"/><feComposite in2="hardAlpha" k2="-1" k3="1" operator="arithmetic"/><feColorMatrix values="0 0 0 0 0 0 0 0 0 0 0 0 0 0 0 0 0 0 0.25 0"/><feBlend in2="shape" result="effect1_innerShadow_1996_3599"/></filter><filter id="j" width="12.123" height="12.082" x="36.51" y="15.963" color-interpolation-filters="sRGB" filterUnits="userSpaceOnUse"><feFlood flood-opacity="0" result="BackgroundImageFix"/><feBlend in="SourceGraphic" in2="BackgroundImageFix" result="shape"/><feColorMatrix in="SourceAlpha" result="hardAlpha" values="0 0 0 0 0 0 0 0 0 0 0 0 0 0 0 0 0 0 127 0"/><feOffset dy=".033"/><feGaussianBlur stdDeviation=".021"/><feComposite in2="hardAlpha" k2="-1" k3="1" operator="arithmetic"/><feColorMatrix values="0 0 0 0 0 0 0 0 0 0 0 0 0 0 0 0 0 0 0.25 0"/><feBlend in2="shape" result="effect1_innerShadow_1996_3599"/></filter><filter id="k" width="7.627" height="5.526" x="38.614" y="19.131" color-interpolation-filters="sRGB" filterUnits="userSpaceOnUse"><feFlood flood-opacity="0" result="BackgroundImageFix"/><feBlend in="SourceGraphic" in2="BackgroundImageFix" result="shape"/><feColorMatrix in="SourceAlpha" result="hardAlpha" values="0 0 0 0 0 0 0 0 0 0 0 0 0 0 0 0 0 0 127 0"/><feOffset dx=".043" dy=".043"/><feGaussianBlur stdDeviation=".043"/><feComposite in2="hardAlpha" k2="-1" k3="1" operator="arithmetic"/><feColorMatrix values="0 0 0 0 0 0 0 0 0 0 0 0 0 0 0 0 0 0 0.2 0"/><feBlend in2="shape" result="effect1_innerShadow_1996_3599"/></filter><filter id="l" width="1.605" height="1.63" x="34.951" y="26.063" color-interpolation-filters="sRGB" filterUnits="userSpaceOnUse"><feFlood flood-opacity="0" result="BackgroundImageFix"/><feBlend in="SourceGraphic" in2="BackgroundImageFix" result="shape"/><feColorMatrix in="SourceAlpha" result="hardAlpha" values="0 0 0 0 0 0 0 0 0 0 0 0 0 0 0 0 0 0 127 0"/><feOffset dy=".035"/><feGaussianBlur stdDeviation=".022"/><feComposite in2="hardAlpha" k2="-1" k3="1" operator="arithmetic"/><feColorMatrix values="0 0 0 0 0 0 0 0 0 0 0 0 0 0 0 0 0 0 0.25 0"/><feBlend in2="shape" result="effect1_innerShadow_1996_3599"/></filter><filter id="m" width="1.605" height="1.63" x="49.091" y="25.711" color-interpolation-filters="sRGB" filterUnits="userSpaceOnUse"><feFlood flood-opacity="0" result="BackgroundImageFix"/><feBlend in="SourceGraphic" in2="BackgroundImageFix" result="shape"/><feColorMatrix in="SourceAlpha" result="hardAlpha" values="0 0 0 0 0 0 0 0 0 0 0 0 0 0 0 0 0 0 127 0"/><feOffset dy=".035"/><feGaussianBlur stdDeviation=".022"/><feComposite in2="hardAlpha" k2="-1" k3="1" operator="arithmetic"/><feColorMatrix values="0 0 0 0 0 0 0 0 0 0 0 0 0 0 0 0 0 0 0.25 0"/><feBlend in2="shape" result="effect1_innerShadow_1996_3599"/></filter><filter id="n" width="10.486" height="3.023" x="37.586" y="28.295" color-interpolation-filters="sRGB" filterUnits="userSpaceOnUse"><feFlood flood-opacity="0" result="BackgroundImageFix"/><feBlend in="SourceGraphic" in2="BackgroundImageFix" result="shape"/><feColorMatrix in="SourceAlpha" result="hardAlpha" values="0 0 0 0 0 0 0 0 0 0 0 0 0 0 0 0 0 0 127 0"/><feOffset dy=".035"/><feGaussianBlur stdDeviation=".022"/><feComposite in2="hardAlpha" k2="-1" k3="1" operator="arithmetic"/><feColorMatrix values="0 0 0 0 0 0 0 0 0 0 0 0 0 0 0 0 0 0 0.25 0"/><feBlend in2="shape" result="effect1_innerShadow_1996_3599"/></filter><filter id="o" width="1.807" height="1.329" x="34.022" y="23.164" color-interpolation-filters="sRGB" filterUnits="userSpaceOnUse"><feFlood flood-opacity="0" result="BackgroundImageFix"/><feBlend in="SourceGraphic" in2="BackgroundImageFix" result="shape"/><feColorMatrix in="SourceAlpha" result="hardAlpha" values="0 0 0 0 0 0 0 0 0 0 0 0 0 0 0 0 0 0 127 0"/><feOffset dy=".033"/><feGaussianBlur stdDeviation=".02"/><feComposite in2="hardAlpha" k2="-1" k3="1" operator="arithmetic"/><feColorMatrix values="0 0 0 0 0 0 0 0 0 0 0 0 0 0 0 0 0 0 0.25 0"/><feBlend in2="shape" result="effect1_innerShadow_1996_3599"/></filter><filter id="p" width="1.692" height="1.261" x="33.821" y="21.379" color-interpolation-filters="sRGB" filterUnits="userSpaceOnUse"><feFlood flood-opacity="0" result="BackgroundImageFix"/><feBlend in="SourceGraphic" in2="BackgroundImageFix" result="shape"/><feColorMatrix in="SourceAlpha" result="hardAlpha" values="0 0 0 0 0 0 0 0 0 0 0 0 0 0 0 0 0 0 127 0"/><feOffset dy=".033"/><feGaussianBlur stdDeviation=".02"/><feComposite in2="hardAlpha" k2="-1" k3="1" operator="arithmetic"/><feColorMatrix values="0 0 0 0 0 0 0 0 0 0 0 0 0 0 0 0 0 0 0.25 0"/><feBlend in2="shape" result="effect1_innerShadow_1996_3599"/></filter><filter id="q" width="1.749" height="1.47" x="33.968" y="19.471" color-interpolation-filters="sRGB" filterUnits="userSpaceOnUse"><feFlood flood-opacity="0" result="BackgroundImageFix"/><feBlend in="SourceGraphic" in2="BackgroundImageFix" result="shape"/><feColorMatrix in="SourceAlpha" result="hardAlpha" values="0 0 0 0 0 0 0 0 0 0 0 0 0 0 0 0 0 0 127 0"/><feOffset dy=".033"/><feGaussianBlur stdDeviation=".02"/><feComposite in2="hardAlpha" k2="-1" k3="1" operator="arithmetic"/><feColorMatrix values="0 0 0 0 0 0 0 0 0 0 0 0 0 0 0 0 0 0 0.25 0"/><feBlend in2="shape" result="effect1_innerShadow_1996_3599"/></filter><filter id="r" width="1.628" height="1.72" x="34.608" y="17.574" color-interpolation-filters="sRGB" filterUnits="userSpaceOnUse"><feFlood flood-opacity="0" result="BackgroundImageFix"/><feBlend in="SourceGraphic" in2="BackgroundImageFix" result="shape"/><feColorMatrix in="SourceAlpha" result="hardAlpha" values="0 0 0 0 0 0 0 0 0 0 0 0 0 0 0 0 0 0 127 0"/><feOffset dy=".033"/><feGaussianBlur stdDeviation=".02"/><feComposite in2="hardAlpha" k2="-1" k3="1" operator="arithmetic"/><feColorMatrix values="0 0 0 0 0 0 0 0 0 0 0 0 0 0 0 0 0 0 0.25 0"/><feBlend in2="shape" result="effect1_innerShadow_1996_3599"/></filter><filter id="s" width="1.98" height="1.874" x="35.307" y="16.125" color-interpolation-filters="sRGB" filterUnits="userSpaceOnUse"><feFlood flood-opacity="0" result="BackgroundImageFix"/><feBlend in="SourceGraphic" in2="BackgroundImageFix" result="shape"/><feColorMatrix in="SourceAlpha" result="hardAlpha" values="0 0 0 0 0 0 0 0 0 0 0 0 0 0 0 0 0 0 127 0"/><feOffset dy=".033"/><feGaussianBlur stdDeviation=".02"/><feComposite in2="hardAlpha" k2="-1" k3="1" operator="arithmetic"/><feColorMatrix values="0 0 0 0 0 0 0 0 0 0 0 0 0 0 0 0 0 0 0.25 0"/><feBlend in2="shape" result="effect1_innerShadow_1996_3599"/></filter><filter id="t" width="1.645" height="1.708" x="36.64" y="14.979" color-interpolation-filters="sRGB" filterUnits="userSpaceOnUse"><feFlood flood-opacity="0" result="BackgroundImageFix"/><feBlend in="SourceGraphic" in2="BackgroundImageFix" result="shape"/><feColorMatrix in="SourceAlpha" result="hardAlpha" values="0 0 0 0 0 0 0 0 0 0 0 0 0 0 0 0 0 0 127 0"/><feOffset dy=".033"/><feGaussianBlur stdDeviation=".02"/><feComposite in2="hardAlpha" k2="-1" k3="1" operator="arithmetic"/><feColorMatrix values="0 0 0 0 0 0 0 0 0 0 0 0 0 0 0 0 0 0 0.25 0"/><feBlend in2="shape" result="effect1_innerShadow_1996_3599"/></filter><filter id="u" width="1.481" height="1.867" x="37.886" y="13.822" color-interpolation-filters="sRGB" filterUnits="userSpaceOnUse"><feFlood flood-opacity="0" result="BackgroundImageFix"/><feBlend in="SourceGraphic" in2="BackgroundImageFix" result="shape"/><feColorMatrix in="SourceAlpha" result="hardAlpha" values="0 0 0 0 0 0 0 0 0 0 0 0 0 0 0 0 0 0 127 0"/><feOffset dy=".033"/><feGaussianBlur stdDeviation=".02"/><feComposite in2="hardAlpha" k2="-1" k3="1" operator="arithmetic"/><feColorMatrix values="0 0 0 0 0 0 0 0 0 0 0 0 0 0 0 0 0 0 0.25 0"/><feBlend in2="shape" result="effect1_innerShadow_1996_3599"/></filter><filter id="v" width="1.43" height="1.769" x="40.544" y="13.15" color-interpolation-filters="sRGB" filterUnits="userSpaceOnUse"><feFlood flood-opacity="0" result="BackgroundImageFix"/><feBlend in="SourceGraphic" in2="BackgroundImageFix" result="shape"/><feColorMatrix in="SourceAlpha" result="hardAlpha" values="0 0 0 0 0 0 0 0 0 0 0 0 0 0 0 0 0 0 127 0"/><feOffset dy=".033"/><feGaussianBlur stdDeviation=".02"/><feComposite in2="hardAlpha" k2="-1" k3="1" operator="arithmetic"/><feColorMatrix values="0 0 0 0 0 0 0 0 0 0 0 0 0 0 0 0 0 0 0.25 0"/><feBlend in2="shape" result="effect1_innerShadow_1996_3599"/></filter><filter id="w" width="1.1" height="1.708" x="42.478" y="13.047" color-interpolation-filters="sRGB" filterUnits="userSpaceOnUse"><feFlood flood-opacity="0" result="BackgroundImageFix"/><feBlend in="SourceGraphic" in2="BackgroundImageFix" result="shape"/><feColorMatrix in="SourceAlpha" result="hardAlpha" values="0 0 0 0 0 0 0 0 0 0 0 0 0 0 0 0 0 0 127 0"/><feOffset dy=".033"/><feGaussianBlur stdDeviation=".02"/><feComposite in2="hardAlpha" k2="-1" k3="1" operator="arithmetic"/><feColorMatrix values="0 0 0 0 0 0 0 0 0 0 0 0 0 0 0 0 0 0 0.25 0"/><feBlend in2="shape" result="effect1_innerShadow_1996_3599"/></filter><filter id="x" width="1.297" height="1.859" x="44.901" y="13.332" color-interpolation-filters="sRGB" filterUnits="userSpaceOnUse"><feFlood flood-opacity="0" result="BackgroundImageFix"/><feBlend in="SourceGraphic" in2="BackgroundImageFix" result="shape"/><feColorMatrix in="SourceAlpha" result="hardAlpha" values="0 0 0 0 0 0 0 0 0 0 0 0 0 0 0 0 0 0 127 0"/><feOffset dy=".033"/><feGaussianBlur stdDeviation=".02"/><feComposite in2="hardAlpha" k2="-1" k3="1" operator="arithmetic"/><feColorMatrix values="0 0 0 0 0 0 0 0 0 0 0 0 0 0 0 0 0 0 0.25 0"/><feBlend in2="shape" result="effect1_innerShadow_1996_3599"/></filter><filter id="y" width="1.922" height="2.091" x="45.953" y="14.055" color-interpolation-filters="sRGB" filterUnits="userSpaceOnUse"><feFlood flood-opacity="0" result="BackgroundImageFix"/><feBlend in="SourceGraphic" in2="BackgroundImageFix" result="shape"/><feColorMatrix in="SourceAlpha" result="hardAlpha" values="0 0 0 0 0 0 0 0 0 0 0 0 0 0 0 0 0 0 127 0"/><feOffset dy=".033"/><feGaussianBlur stdDeviation=".02"/><feComposite in2="hardAlpha" k2="-1" k3="1" operator="arithmetic"/><feColorMatrix values="0 0 0 0 0 0 0 0 0 0 0 0 0 0 0 0 0 0 0.25 0"/><feBlend in2="shape" result="effect1_innerShadow_1996_3599"/></filter><filter id="z" width="1.927" height="1.962" x="47.338" y="15.199" color-interpolation-filters="sRGB" filterUnits="userSpaceOnUse"><feFlood flood-opacity="0" result="BackgroundImageFix"/><feBlend in="SourceGraphic" in2="BackgroundImageFix" result="shape"/><feColorMatrix in="SourceAlpha" result="hardAlpha" values="0 0 0 0 0 0 0 0 0 0 0 0 0 0 0 0 0 0 127 0"/><feOffset dy=".033"/><feGaussianBlur stdDeviation=".02"/><feComposite in2="hardAlpha" k2="-1" k3="1" operator="arithmetic"/><feColorMatrix values="0 0 0 0 0 0 0 0 0 0 0 0 0 0 0 0 0 0 0.25 0"/><feBlend in2="shape" result="effect1_innerShadow_1996_3599"/></filter><filter id="A" width="2.258" height="2.292" x="48.858" y="17.186" color-interpolation-filters="sRGB" filterUnits="userSpaceOnUse"><feFlood flood-opacity="0" result="BackgroundImageFix"/><feBlend in="SourceGraphic" in2="BackgroundImageFix" result="shape"/><feColorMatrix in="SourceAlpha" result="hardAlpha" values="0 0 0 0 0 0 0 0 0 0 0 0 0 0 0 0 0 0 127 0"/><feOffset dy=".033"/><feGaussianBlur stdDeviation=".02"/><feComposite in2="hardAlpha" k2="-1" k3="1" operator="arithmetic"/><feColorMatrix values="0 0 0 0 0 0 0 0 0 0 0 0 0 0 0 0 0 0 0.25 0"/><feBlend in2="shape" result="effect1_innerShadow_1996_3599"/></filter><filter id="B" width="1.85" height="1.4" x="49.653" y="19.689" color-interpolation-filters="sRGB" filterUnits="userSpaceOnUse"><feFlood flood-opacity="0" result="BackgroundImageFix"/><feBlend in="SourceGraphic" in2="BackgroundImageFix" result="shape"/><feColorMatrix in="SourceAlpha" result="hardAlpha" values="0 0 0 0 0 0 0 0 0 0 0 0 0 0 0 0 0 0 127 0"/><feOffset dy=".033"/><feGaussianBlur stdDeviation=".02"/><feComposite in2="hardAlpha" k2="-1" k3="1" operator="arithmetic"/><feColorMatrix values="0 0 0 0 0 0 0 0 0 0 0 0 0 0 0 0 0 0 0.25 0"/><feBlend in2="shape" result="effect1_innerShadow_1996_3599"/></filter><filter id="C" width="1.687" height="1.099" x="49.876" y="21.426" color-interpolation-filters="sRGB" filterUnits="userSpaceOnUse"><feFlood flood-opacity="0" result="BackgroundImageFix"/><feBlend in="SourceGraphic" in2="BackgroundImageFix" result="shape"/><feColorMatrix in="SourceAlpha" result="hardAlpha" values="0 0 0 0 0 0 0 0 0 0 0 0 0 0 0 0 0 0 127 0"/><feOffset dy=".033"/><feGaussianBlur stdDeviation=".02"/><feComposite in2="hardAlpha" k2="-1" k3="1" operator="arithmetic"/><feColorMatrix values="0 0 0 0 0 0 0 0 0 0 0 0 0 0 0 0 0 0 0.25 0"/><feBlend in2="shape" result="effect1_innerShadow_1996_3599"/></filter><filter id="D" width="1.912" height="1.619" x="49.56" y="22.854" color-interpolation-filters="sRGB" filterUnits="userSpaceOnUse"><feFlood flood-opacity="0" result="BackgroundImageFix"/><feBlend in="SourceGraphic" in2="BackgroundImageFix" result="shape"/><feColorMatrix in="SourceAlpha" result="hardAlpha" values="0 0 0 0 0 0 0 0 0 0 0 0 0 0 0 0 0 0 127 0"/><feOffset dy=".033"/><feGaussianBlur stdDeviation=".02"/><feComposite in2="hardAlpha" k2="-1" k3="1" operator="arithmetic"/><feColorMatrix values="0 0 0 0 0 0 0 0 0 0 0 0 0 0 0 0 0 0 0.25 0"/><feBlend in2="shape" result="effect1_innerShadow_1996_3599"/></filter><linearGradient id="g" x1="35.57" x2="28.327" y1="6.697" y2="35.485" gradientUnits="userSpaceOnUse"><stop offset=".095" stop-color="#FEDE6D"/><stop offset=".371" stop-color="#EAB94C"/><stop offset=".75" stop-color="#FFED71"/><stop offset=".867" stop-color="#FAD27B"/></linearGradient><clipPath id="E"><path fill="#fff" d="M79.907 10h42v11h-42z"/></clipPath></defs></svg>